<svg xmlns="http://www.w3.org/2000/svg" xmlns:xlink="http://www.w3.org/1999/xlink" width="500" zoomAndPan="magnify" viewBox="0 0 375 374.999991" height="500" preserveAspectRatio="xMidYMid meet" version="1.0"><defs><g/><clipPath id="124d494b24"><path d="M 158 93.734375 L 226 93.734375 L 226 167 L 158 167 Z M 158 93.734375 " clip-rule="nonzero"/></clipPath><clipPath id="5d3f22441e"><path d="M 147.546875 137 L 227.796875 137 L 227.796875 216.734375 L 147.546875 216.734375 Z M 147.546875 137 " clip-rule="nonzero"/></clipPath></defs><rect x="-37.5" width="450" fill="#ffffff" y="-37.499999" height="449.999989" fill-opacity="1"/><rect x="-37.5" width="450" fill="#ffffff" y="-37.499999" height="449.999989" fill-opacity="1"/><rect x="-37.5" width="450" fill="#004aad" y="-37.499999" height="449.999989" fill-opacity="1"/><path fill="#8c52ff" d="M 173.472656 136.570312 C 177.179688 130.375 176.242188 122.492188 171.273438 117.257812 C 174.308594 125.109375 175.042969 131.566406 173.472656 136.570312 Z M 173.472656 136.570312 " fill-opacity="1" fill-rule="evenodd"/><path fill="#8c52ff" d="M 187.289062 135.113281 C 192.761719 137.398438 199.066406 135.179688 201.9375 130.042969 C 197.765625 133.324219 192.628906 135.113281 187.289062 135.113281 Z M 187.289062 135.113281 " fill-opacity="1" fill-rule="evenodd"/><g clip-path="url(#124d494b24)"><path fill="#cb6ce6" d="M 158.457031 166.777344 C 166.300781 129.515625 214.148438 161.082031 225.328125 122.921875 C 215.519531 125.042969 209.8125 121.464844 201.269531 122.558594 C 209.945312 115.636719 214.25 104.636719 212.582031 93.738281 C 201.871094 106.0625 182.816406 101.09375 183.25 114.410156 C 186.355469 107.089844 199.269531 107.75 208.042969 102.847656 C 202.4375 129.050781 193.695312 117.027344 184.519531 128.054688 C 186.222656 116.828125 174.742188 109.078125 171.605469 98.941406 C 160.394531 112.585938 159.894531 125.375 170.105469 137.332031 C 165 128.355469 165.300781 117.292969 170.90625 108.613281 C 175.34375 117.027344 185.386719 124.378906 180.847656 134.847656 C 186.121094 126.863281 192.828125 123.785156 200.9375 125.570312 C 208.011719 126.664062 213.683594 127.359375 217.953125 127.59375 C 206.910156 143.957031 196.933594 137.925781 182.050781 141.871094 C 169.804688 144.585938 160.425781 154.457031 158.457031 166.777344 Z M 158.457031 166.777344 " fill-opacity="1" fill-rule="evenodd"/></g><path fill="#8c52ff" d="M 203.203125 109.109375 C 196.332031 109.839844 190.523438 114.609375 188.523438 121.167969 C 192.292969 115.964844 197.367188 111.824219 203.203125 109.109375 Z M 203.203125 109.109375 " fill-opacity="1" fill-rule="evenodd"/><path fill="#cb6ce6" d="M 212.28125 151.476562 C 218.820312 161.082031 218.988281 173.636719 212.75 183.472656 C 206.507812 193.3125 194.964844 198.511719 183.417969 196.753906 C 171.839844 195.03125 162.394531 186.652344 159.394531 175.421875 C 161.195312 188.144531 170.9375 198.28125 183.617188 200.730469 C 196.296875 203.148438 209.179688 197.351562 215.617188 186.222656 C 222.089844 175.09375 220.722656 161.148438 212.28125 151.476562 Z M 212.28125 151.476562 " fill-opacity="1" fill-rule="evenodd"/><path fill="#cb6ce6" d="M 202.238281 147.101562 C 207.476562 154.421875 209.179688 163.664062 206.941406 172.308594 C 204.707031 181.023438 198.734375 188.277344 190.660156 192.21875 C 200.300781 190.03125 207.910156 182.679688 210.347656 173.171875 C 212.78125 163.699219 209.679688 153.628906 202.238281 147.101562 Z M 202.238281 147.101562 " fill-opacity="1" fill-rule="evenodd"/><g clip-path="url(#5d3f22441e)"><path fill="#8c52ff" d="M 153.421875 170.324219 C 154.355469 154.257812 166 140.777344 181.847656 137.464844 C 163.464844 140.148438 149.316406 155.019531 147.714844 173.4375 C 146.113281 191.820312 157.425781 208.914062 175.074219 214.707031 C 192.726562 220.503906 212.082031 213.484375 221.859375 197.75 C 231.601562 182.015625 229.164062 161.710938 216.019531 148.660156 C 226.761719 160.714844 228.0625 178.4375 219.15625 191.851562 C 210.210938 205.300781 193.328125 211.132812 177.945312 206.097656 C 162.5625 201.027344 152.484375 186.386719 153.421875 170.324219 Z M 153.421875 170.324219 " fill-opacity="1" fill-rule="evenodd"/></g><g fill="#f6f6e9" fill-opacity="1"><g transform="translate(124.413179, 254.306838)"><g><path d="M 10.015625 -15.859375 C 9.597656 -16.410156 8.710938 -16.6875 7.359375 -16.6875 C 6.003906 -16.6875 5.070312 -16.234375 4.5625 -15.328125 C 4.382812 -15.023438 4.296875 -14.644531 4.296875 -14.1875 C 4.296875 -13.351562 4.664062 -12.59375 5.40625 -11.90625 C 5.90625 -11.4375 6.585938 -10.957031 7.453125 -10.46875 C 8.328125 -9.988281 9.0625 -9.5625 9.65625 -9.1875 C 11.90625 -7.75 13.03125 -6.179688 13.03125 -4.484375 C 13.03125 -2.972656 12.472656 -1.804688 11.359375 -0.984375 C 10.253906 -0.171875 8.820312 0.234375 7.0625 0.234375 C 5.300781 0.234375 3.890625 -0.109375 2.828125 -0.796875 C 1.765625 -1.492188 1.234375 -2.296875 1.234375 -3.203125 C 1.234375 -4.109375 1.597656 -4.71875 2.328125 -5.03125 C 2.546875 -5.132812 2.785156 -5.1875 3.046875 -5.1875 C 3.546875 -5.1875 3.957031 -5.019531 4.28125 -4.6875 C 4.601562 -4.351562 4.765625 -3.929688 4.765625 -3.421875 C 4.765625 -2.910156 4.535156 -2.476562 4.078125 -2.125 C 4.703125 -1.5 5.726562 -1.1875 7.15625 -1.1875 C 8.59375 -1.1875 9.578125 -1.671875 10.109375 -2.640625 C 10.296875 -2.972656 10.390625 -3.363281 10.390625 -3.8125 C 10.390625 -4.582031 9.992188 -5.300781 9.203125 -5.96875 C 8.785156 -6.300781 8.085938 -6.738281 7.109375 -7.28125 C 6.128906 -7.832031 5.359375 -8.289062 4.796875 -8.65625 C 2.722656 -9.988281 1.6875 -11.5625 1.6875 -13.375 C 1.6875 -14.789062 2.21875 -15.9375 3.28125 -16.8125 C 4.351562 -17.6875 5.675781 -18.125 7.25 -18.125 C 8.832031 -18.125 10.128906 -17.785156 11.140625 -17.109375 C 12.160156 -16.429688 12.671875 -15.609375 12.671875 -14.640625 C 12.671875 -14.117188 12.507812 -13.679688 12.1875 -13.328125 C 11.863281 -12.972656 11.453125 -12.796875 10.953125 -12.796875 C 10.203125 -12.796875 9.679688 -13.125 9.390625 -13.78125 C 9.296875 -13.976562 9.25 -14.191406 9.25 -14.421875 C 9.25 -15.023438 9.503906 -15.503906 10.015625 -15.859375 Z M 10.015625 -15.859375 "/></g></g></g><g fill="#f6f6e9" fill-opacity="1"><g transform="translate(140.718604, 254.306838)"><g><path d="M 12.203125 -5.5 L 3.921875 -5.5 C 3.921875 -4.132812 4.242188 -3.078125 4.890625 -2.328125 C 5.535156 -1.578125 6.335938 -1.203125 7.296875 -1.203125 C 8.578125 -1.203125 9.492188 -1.734375 10.046875 -2.796875 L 11.828125 -2.796875 C 11.648438 -1.953125 11.128906 -1.234375 10.265625 -0.640625 C 9.398438 -0.0546875 8.234375 0.234375 6.765625 0.234375 C 5.304688 0.234375 4.046875 -0.21875 2.984375 -1.125 C 1.710938 -2.207031 1.078125 -3.738281 1.078125 -5.71875 C 1.078125 -7.695312 1.582031 -9.289062 2.59375 -10.5 C 3.601562 -11.71875 5.054688 -12.328125 6.953125 -12.328125 C 9.441406 -12.328125 11.050781 -11.328125 11.78125 -9.328125 C 12.070312 -8.523438 12.21875 -7.765625 12.21875 -7.046875 C 12.21875 -6.328125 12.210938 -5.8125 12.203125 -5.5 Z M 9.4375 -7.28125 C 9.4375 -9.71875 8.613281 -10.9375 6.96875 -10.9375 C 6.03125 -10.9375 5.300781 -10.570312 4.78125 -9.84375 C 4.257812 -9.125 3.976562 -8.125 3.9375 -6.84375 L 9.4375 -6.84375 C 9.4375 -7 9.4375 -7.144531 9.4375 -7.28125 Z M 9.4375 -7.28125 "/></g></g></g><g fill="#f6f6e9" fill-opacity="1"><g transform="translate(156.17731, 254.306838)"><g><path d="M 0.828125 -1.3125 C 1.523438 -1.3125 2 -1.40625 2.25 -1.59375 C 2.507812 -1.789062 2.640625 -2.125 2.640625 -2.59375 L 2.640625 -15.5 C 2.640625 -16.070312 2.585938 -16.445312 2.484375 -16.625 C 2.390625 -16.800781 2.125 -16.890625 1.6875 -16.890625 L 0.71875 -16.890625 L 0.71875 -18.203125 C 1.519531 -18.203125 2.144531 -18.257812 2.59375 -18.375 C 3.050781 -18.488281 3.375 -18.570312 3.5625 -18.625 C 3.757812 -18.675781 3.96875 -18.703125 4.1875 -18.703125 C 4.601562 -18.703125 4.878906 -18.582031 5.015625 -18.34375 C 5.148438 -18.101562 5.21875 -17.710938 5.21875 -17.171875 L 5.21875 -2.59375 C 5.21875 -2.09375 5.320312 -1.753906 5.53125 -1.578125 C 5.75 -1.398438 6.242188 -1.3125 7.015625 -1.3125 L 7.015625 0 L 0.828125 0 Z M 0.828125 -1.3125 "/></g></g></g><g fill="#f6f6e9" fill-opacity="1"><g transform="translate(166.197938, 254.306838)"><g><path d="M 1.265625 -1.3125 C 1.953125 -1.3125 2.382812 -1.378906 2.5625 -1.515625 C 2.738281 -1.660156 2.84375 -1.8125 2.875 -1.96875 C 2.914062 -2.125 2.9375 -2.320312 2.9375 -2.5625 L 2.9375 -9.890625 C 2.9375 -10.203125 2.894531 -10.40625 2.8125 -10.5 C 2.738281 -10.601562 2.582031 -10.65625 2.34375 -10.65625 L 0.984375 -10.65625 L 0.984375 -12.09375 L 2.9375 -12.09375 L 2.9375 -13.28125 C 2.9375 -15.132812 3.378906 -16.601562 4.265625 -17.6875 C 5.148438 -18.769531 6.332031 -19.3125 7.8125 -19.3125 C 8.820312 -19.3125 9.625 -19.003906 10.21875 -18.390625 C 10.820312 -17.773438 11.125 -17.066406 11.125 -16.265625 C 11.125 -15.460938 10.828125 -14.925781 10.234375 -14.65625 C 10.035156 -14.570312 9.828125 -14.53125 9.609375 -14.53125 C 9.191406 -14.53125 8.820312 -14.671875 8.5 -14.953125 C 8.1875 -15.242188 8.03125 -15.5625 8.03125 -15.90625 C 8.03125 -16.570312 8.328125 -17.003906 8.921875 -17.203125 C 8.796875 -17.484375 8.625 -17.691406 8.40625 -17.828125 C 8.1875 -17.960938 7.984375 -18.03125 7.796875 -18.03125 C 7.617188 -18.03125 7.441406 -18.015625 7.265625 -17.984375 C 7.097656 -17.960938 6.929688 -17.898438 6.765625 -17.796875 C 5.941406 -17.304688 5.53125 -15.859375 5.53125 -13.453125 L 5.53125 -12.09375 L 9.140625 -12.09375 L 9.140625 -10.65625 L 5.53125 -10.65625 L 5.53125 -2.671875 C 5.53125 -2.066406 5.664062 -1.6875 5.9375 -1.53125 C 6.21875 -1.382812 6.921875 -1.3125 8.046875 -1.3125 L 8.046875 0 L 1.265625 0 Z M 1.265625 -1.3125 "/></g></g></g><g fill="#f6f6e9" fill-opacity="1"><g transform="translate(178.067035, 254.306838)"><g/></g></g><g fill="#f6f6e9" fill-opacity="1"><g transform="translate(188.361948, 254.306838)"><g><path d="M 9.515625 -1.3125 C 12.015625 -1.3125 13.597656 -2.460938 14.265625 -4.765625 L 15.984375 -4.765625 C 15.984375 -4.148438 15.816406 -3.539062 15.484375 -2.9375 C 15.148438 -2.34375 14.679688 -1.804688 14.078125 -1.328125 C 12.734375 -0.285156 11.007812 0.234375 8.90625 0.234375 C 6.8125 0.234375 5.019531 -0.460938 3.53125 -1.859375 C 1.800781 -3.472656 0.9375 -5.832031 0.9375 -8.9375 C 0.9375 -11.425781 1.601562 -13.519531 2.9375 -15.21875 C 3.882812 -16.4375 5.144531 -17.28125 6.71875 -17.75 C 7.53125 -18 8.421875 -18.125 9.390625 -18.125 C 11.304688 -18.125 12.878906 -17.679688 14.109375 -16.796875 C 15.335938 -15.921875 15.953125 -14.820312 15.953125 -13.5 C 15.953125 -12.507812 15.5625 -11.84375 14.78125 -11.5 C 14.550781 -11.394531 14.300781 -11.34375 14.03125 -11.34375 C 13.195312 -11.34375 12.640625 -11.695312 12.359375 -12.40625 C 12.265625 -12.625 12.21875 -12.882812 12.21875 -13.1875 C 12.21875 -13.5 12.304688 -13.800781 12.484375 -14.09375 C 12.660156 -14.394531 12.890625 -14.625 13.171875 -14.78125 C 12.535156 -16.019531 11.382812 -16.640625 9.71875 -16.640625 C 8.050781 -16.640625 6.695312 -16.007812 5.65625 -14.75 C 4.625 -13.488281 4.109375 -11.59375 4.109375 -9.0625 C 4.109375 -6.539062 4.632812 -4.617188 5.6875 -3.296875 C 6.75 -1.972656 8.023438 -1.3125 9.515625 -1.3125 Z M 9.515625 -1.3125 "/></g></g></g><g fill="#f6f6e9" fill-opacity="1"><g transform="translate(208.292754, 254.306838)"><g><path d="M 11.390625 -2.84375 C 11.390625 -1.90625 11.578125 -1.4375 11.953125 -1.4375 C 12.304688 -1.4375 12.566406 -1.554688 12.734375 -1.796875 C 12.898438 -2.035156 12.984375 -2.472656 12.984375 -3.109375 L 14.234375 -3.109375 C 14.242188 -3.003906 14.25 -2.84375 14.25 -2.625 C 14.25 -1.90625 14.070312 -1.285156 13.71875 -0.765625 C 13.28125 -0.0976562 12.582031 0.234375 11.625 0.234375 C 11.007812 0.234375 10.484375 0.0625 10.046875 -0.28125 C 9.609375 -0.632812 9.304688 -1.097656 9.140625 -1.671875 C 7.984375 -0.398438 6.523438 0.234375 4.765625 0.234375 C 3.785156 0.234375 2.9375 -0.046875 2.21875 -0.609375 C 1.5 -1.179688 1.140625 -1.976562 1.140625 -3 C 1.140625 -4.757812 2.445312 -6.0625 5.0625 -6.90625 C 6.707031 -7.425781 7.691406 -7.785156 8.015625 -7.984375 C 8.347656 -8.191406 8.5625 -8.398438 8.65625 -8.609375 C 8.757812 -8.828125 8.8125 -9.066406 8.8125 -9.328125 C 8.8125 -9.796875 8.578125 -10.1875 8.109375 -10.5 C 7.648438 -10.8125 7.050781 -10.96875 6.3125 -10.96875 C 5.582031 -10.96875 4.929688 -10.769531 4.359375 -10.375 C 4.753906 -10.082031 4.953125 -9.703125 4.953125 -9.234375 C 4.953125 -8.773438 4.800781 -8.40625 4.5 -8.125 C 4.195312 -7.851562 3.828125 -7.71875 3.390625 -7.71875 C 2.960938 -7.71875 2.601562 -7.847656 2.3125 -8.109375 C 2.03125 -8.367188 1.890625 -8.734375 1.890625 -9.203125 C 1.890625 -10.128906 2.359375 -10.878906 3.296875 -11.453125 C 4.234375 -12.035156 5.375 -12.328125 6.71875 -12.328125 C 9.125 -12.328125 10.59375 -11.550781 11.125 -10 C 11.300781 -9.476562 11.390625 -8.878906 11.390625 -8.203125 Z M 6.125 -5.8125 C 5.425781 -5.507812 4.898438 -5.125 4.546875 -4.65625 C 4.203125 -4.1875 4.03125 -3.671875 4.03125 -3.109375 C 4.03125 -2.554688 4.179688 -2.132812 4.484375 -1.84375 C 4.785156 -1.5625 5.160156 -1.421875 5.609375 -1.421875 C 6.535156 -1.421875 7.300781 -1.742188 7.90625 -2.390625 C 8.507812 -3.035156 8.8125 -3.941406 8.8125 -5.109375 L 8.8125 -6.9375 C 8.300781 -6.675781 7.757812 -6.4375 7.1875 -6.21875 C 6.625 -6.007812 6.269531 -5.875 6.125 -5.8125 Z M 6.125 -5.8125 "/></g></g></g><g fill="#f6f6e9" fill-opacity="1"><g transform="translate(224.419298, 254.306838)"><g><path d="M 0.984375 -1.3125 C 1.660156 -1.3125 2.085938 -1.378906 2.265625 -1.515625 C 2.441406 -1.660156 2.546875 -1.8125 2.578125 -1.96875 C 2.617188 -2.125 2.640625 -2.320312 2.640625 -2.5625 L 2.640625 -9.140625 C 2.640625 -9.710938 2.585938 -10.082031 2.484375 -10.25 C 2.390625 -10.425781 2.125 -10.515625 1.6875 -10.515625 L 0.953125 -10.515625 L 0.953125 -11.828125 C 1.710938 -11.828125 2.300781 -11.882812 2.71875 -12 C 3.132812 -12.113281 3.429688 -12.195312 3.609375 -12.25 C 3.785156 -12.300781 3.976562 -12.328125 4.1875 -12.328125 C 4.59375 -12.328125 4.863281 -12.207031 5 -11.96875 C 5.144531 -11.726562 5.21875 -11.335938 5.21875 -10.796875 L 5.21875 -10.5625 C 5.894531 -11.363281 6.664062 -11.90625 7.53125 -12.1875 C 7.84375 -12.28125 8.15625 -12.328125 8.46875 -12.328125 C 9.0625 -12.328125 9.519531 -12.15625 9.84375 -11.8125 C 10.175781 -11.46875 10.34375 -11.046875 10.34375 -10.546875 C 10.34375 -10.046875 10.179688 -9.632812 9.859375 -9.3125 C 9.546875 -9 9.164062 -8.84375 8.71875 -8.84375 C 8.269531 -8.84375 7.898438 -9 7.609375 -9.3125 C 7.316406 -9.632812 7.1875 -10.035156 7.21875 -10.515625 C 6.894531 -10.472656 6.546875 -10.320312 6.171875 -10.0625 C 5.804688 -9.8125 5.488281 -9.472656 5.21875 -9.046875 L 5.21875 -2.671875 C 5.21875 -2.367188 5.238281 -2.128906 5.28125 -1.953125 C 5.332031 -1.773438 5.472656 -1.625 5.703125 -1.5 C 5.929688 -1.375 6.613281 -1.3125 7.75 -1.3125 L 7.75 0 L 0.984375 0 Z M 0.984375 -1.3125 "/></g></g></g><g fill="#f6f6e9" fill-opacity="1"><g transform="translate(237.266292, 254.306838)"><g><path d="M 12.203125 -5.5 L 3.921875 -5.5 C 3.921875 -4.132812 4.242188 -3.078125 4.890625 -2.328125 C 5.535156 -1.578125 6.335938 -1.203125 7.296875 -1.203125 C 8.578125 -1.203125 9.492188 -1.734375 10.046875 -2.796875 L 11.828125 -2.796875 C 11.648438 -1.953125 11.128906 -1.234375 10.265625 -0.640625 C 9.398438 -0.0546875 8.234375 0.234375 6.765625 0.234375 C 5.304688 0.234375 4.046875 -0.21875 2.984375 -1.125 C 1.710938 -2.207031 1.078125 -3.738281 1.078125 -5.71875 C 1.078125 -7.695312 1.582031 -9.289062 2.59375 -10.5 C 3.601562 -11.71875 5.054688 -12.328125 6.953125 -12.328125 C 9.441406 -12.328125 11.050781 -11.328125 11.78125 -9.328125 C 12.070312 -8.523438 12.21875 -7.765625 12.21875 -7.046875 C 12.21875 -6.328125 12.210938 -5.8125 12.203125 -5.5 Z M 9.4375 -7.28125 C 9.4375 -9.71875 8.613281 -10.9375 6.96875 -10.9375 C 6.03125 -10.9375 5.300781 -10.570312 4.78125 -9.84375 C 4.257812 -9.125 3.976562 -8.125 3.9375 -6.84375 L 9.4375 -6.84375 C 9.4375 -7 9.4375 -7.144531 9.4375 -7.28125 Z M 9.4375 -7.28125 "/></g></g></g><g fill="#f6f6e9" fill-opacity="1"><g transform="translate(170.903304, 278.340239)"><g><path d="M 7.21875 0 C 7.09375 0 7.003906 -0.0664062 6.953125 -0.203125 L 6.5625 -1.515625 C 6.550781 -1.554688 6.519531 -1.578125 6.46875 -1.578125 L 3.015625 -1.578125 C 2.960938 -1.578125 2.929688 -1.554688 2.921875 -1.515625 L 2.53125 -0.203125 C 2.476562 -0.0664062 2.390625 0 2.265625 0 L 0.625 0 C 0.539062 0 0.476562 -0.0234375 0.4375 -0.078125 C 0.394531 -0.128906 0.390625 -0.191406 0.421875 -0.265625 L 3.4375 -9.703125 C 3.476562 -9.828125 3.566406 -9.890625 3.703125 -9.890625 L 5.78125 -9.890625 C 5.914062 -9.890625 6.003906 -9.828125 6.046875 -9.703125 L 9.0625 -0.265625 C 9.070312 -0.242188 9.078125 -0.21875 9.078125 -0.1875 C 9.078125 -0.125 9.054688 -0.078125 9.015625 -0.046875 C 8.984375 -0.015625 8.929688 0 8.859375 0 Z M 3.421875 -3.21875 C 3.410156 -3.15625 3.4375 -3.125 3.5 -3.125 L 6 -3.125 C 6.050781 -3.125 6.070312 -3.15625 6.0625 -3.21875 L 4.796875 -7.53125 C 4.785156 -7.570312 4.765625 -7.59375 4.734375 -7.59375 C 4.710938 -7.59375 4.695312 -7.570312 4.6875 -7.53125 Z M 3.421875 -3.21875 "/></g></g></g><g fill="#f6f6e9" fill-opacity="1"><g transform="translate(184.337375, 278.340239)"><g><path d="M 7.234375 -5.296875 C 7.398438 -4.847656 7.484375 -4.285156 7.484375 -3.609375 C 7.484375 -2.910156 7.394531 -2.328125 7.21875 -1.859375 C 7.007812 -1.253906 6.664062 -0.769531 6.1875 -0.40625 C 5.707031 -0.0507812 5.148438 0.125 4.515625 0.125 C 3.816406 0.125 3.28125 -0.101562 2.90625 -0.5625 C 2.882812 -0.59375 2.859375 -0.601562 2.828125 -0.59375 C 2.804688 -0.582031 2.796875 -0.554688 2.796875 -0.515625 L 2.796875 2.390625 C 2.796875 2.546875 2.71875 2.625 2.5625 2.625 L 1.046875 2.625 C 0.890625 2.625 0.8125 2.546875 0.8125 2.390625 L 0.8125 -7.03125 C 0.8125 -7.1875 0.890625 -7.265625 1.046875 -7.265625 L 2.5625 -7.265625 C 2.71875 -7.265625 2.796875 -7.1875 2.796875 -7.03125 L 2.796875 -6.640625 C 2.796875 -6.609375 2.804688 -6.585938 2.828125 -6.578125 C 2.859375 -6.578125 2.882812 -6.59375 2.90625 -6.625 C 3.289062 -7.125 3.828125 -7.375 4.515625 -7.375 C 5.148438 -7.375 5.710938 -7.179688 6.203125 -6.796875 C 6.703125 -6.421875 7.046875 -5.921875 7.234375 -5.296875 Z M 5.046875 -2.15625 C 5.273438 -2.539062 5.390625 -3.035156 5.390625 -3.640625 C 5.390625 -4.203125 5.289062 -4.664062 5.09375 -5.03125 C 4.863281 -5.4375 4.519531 -5.640625 4.0625 -5.640625 C 3.644531 -5.640625 3.320312 -5.4375 3.09375 -5.03125 C 2.90625 -4.6875 2.8125 -4.222656 2.8125 -3.640625 C 2.8125 -3.023438 2.910156 -2.535156 3.109375 -2.171875 C 3.347656 -1.804688 3.664062 -1.625 4.0625 -1.625 C 4.488281 -1.625 4.816406 -1.800781 5.046875 -2.15625 Z M 5.046875 -2.15625 "/></g></g></g><g fill="#f6f6e9" fill-opacity="1"><g transform="translate(196.187723, 278.340239)"><g><path d="M 7.234375 -5.296875 C 7.398438 -4.847656 7.484375 -4.285156 7.484375 -3.609375 C 7.484375 -2.910156 7.394531 -2.328125 7.21875 -1.859375 C 7.007812 -1.253906 6.664062 -0.769531 6.1875 -0.40625 C 5.707031 -0.0507812 5.148438 0.125 4.515625 0.125 C 3.816406 0.125 3.28125 -0.101562 2.90625 -0.5625 C 2.882812 -0.59375 2.859375 -0.601562 2.828125 -0.59375 C 2.804688 -0.582031 2.796875 -0.554688 2.796875 -0.515625 L 2.796875 2.390625 C 2.796875 2.546875 2.71875 2.625 2.5625 2.625 L 1.046875 2.625 C 0.890625 2.625 0.8125 2.546875 0.8125 2.390625 L 0.8125 -7.03125 C 0.8125 -7.1875 0.890625 -7.265625 1.046875 -7.265625 L 2.5625 -7.265625 C 2.71875 -7.265625 2.796875 -7.1875 2.796875 -7.03125 L 2.796875 -6.640625 C 2.796875 -6.609375 2.804688 -6.585938 2.828125 -6.578125 C 2.859375 -6.578125 2.882812 -6.59375 2.90625 -6.625 C 3.289062 -7.125 3.828125 -7.375 4.515625 -7.375 C 5.148438 -7.375 5.710938 -7.179688 6.203125 -6.796875 C 6.703125 -6.421875 7.046875 -5.921875 7.234375 -5.296875 Z M 5.046875 -2.15625 C 5.273438 -2.539062 5.390625 -3.035156 5.390625 -3.640625 C 5.390625 -4.203125 5.289062 -4.664062 5.09375 -5.03125 C 4.863281 -5.4375 4.519531 -5.640625 4.0625 -5.640625 C 3.644531 -5.640625 3.320312 -5.4375 3.09375 -5.03125 C 2.90625 -4.6875 2.8125 -4.222656 2.8125 -3.640625 C 2.8125 -3.023438 2.910156 -2.535156 3.109375 -2.171875 C 3.347656 -1.804688 3.664062 -1.625 4.0625 -1.625 C 4.488281 -1.625 4.816406 -1.800781 5.046875 -2.15625 Z M 5.046875 -2.15625 "/></g></g></g></svg>